<svg xmlns="http://www.w3.org/2000/svg" viewBox="0 0 350.46 78.99"><defs><style>.cls-1,.cls-2{fill:#fff;}.cls-2{font-size:12.84px;font-family:Inter-Regular, Inter;letter-spacing:0.05em;}.cls-3{letter-spacing:0.04em;}.cls-4{letter-spacing:0.05em;}.cls-5{letter-spacing:0.03em;}.cls-6{letter-spacing:0.04em;}</style></defs><g id="Capa_2" data-name="Capa 2"><g id="Capa_1-2" data-name="Capa 1"><rect class="cls-1" x="86.08" y="55.53" width="263.11" height="1.03"/><text class="cls-2" transform="translate(84.94 74.05)">Labora<tspan class="cls-3" x="46.13" y="0">t</tspan><tspan class="cls-4" x="51.37" y="0">orio Digital &amp; Cent</tspan><tspan class="cls-5" x="172.89" y="0">r</tspan><tspan class="cls-4" x="178.24" y="0">o de </tspan><tspan class="cls-6" x="211.79" y="0">F</tspan><tspan class="cls-5" x="219.89" y="0">r</tspan><tspan class="cls-4" x="225.24" y="0">esado</tspan></text><polygon class="cls-1" points="126.77 28.36 126.77 43.65 149.01 43.65 149.01 36.83 134.59 36.83 134.59 31.69 148.69 31.69 148.69 28.36 148.69 24.87 134.59 24.87 134.59 20.14 149.01 20.14 149.01 13.32 126.77 13.32 126.77 28.36"/><polygon class="cls-1" points="247.57 28.36 247.57 30.01 246.37 28.36 235.3 13.32 227.25 13.32 227.25 28.36 227.25 43.65 235.07 43.65 235.07 28.36 235.07 26.1 236.72 28.36 247.9 43.65 255.44 43.65 255.44 28.36 255.44 13.32 247.57 13.32 247.57 28.36"/><path class="cls-1" d="M102,5.75H86.13v8.38a5.45,5.45,0,0,0-2.24-3.51l-2.23,13-2.41-14H78a.93.93,0,0,1-.93-.93V8.57a.92.92,0,0,0-.92-.92H74.93l-2.4,15.58L70.11,7.65H68.88A.93.93,0,0,1,68,6.72V4.18A.93.93,0,0,0,67,3.25H65.42l-2.84,20-2.86-20H57.43a.92.92,0,0,1-.93-.93V.92A.92.92,0,0,0,55.58,0H50.9L48.05,34.31,45.21,0H43.54a2.28,2.28,0,0,0-2.29,2.29v1H38V9.07H30.14v9.76H19.61l-.73.27c-.22.15-.44.28-.66.41a5.75,5.75,0,0,1-6.95-.41l-.74-.27H3a3,3,0,0,0-3,3v5.73a3,3,0,0,0,3,3h7.53l.74-.26a5.6,5.6,0,0,1,7.61,0l.73.26H30.14v9.77H38v5.82h3.23v1a2.29,2.29,0,0,0,2.29,2.29h12a.93.93,0,0,0,.92-.93V47.07a.92.92,0,0,1,.93-.92H67a.93.93,0,0,0,.93-.93V42.67a.92.92,0,0,1,.92-.92h8.21V40.33h2.34a6.8,6.8,0,0,0,6.7-5.72v9h16c10.57,0,18.53-5.73,20.14-15.29a21.74,21.74,0,0,0,.31-3.68C122.56,12.91,114,5.75,102,5.75ZM112,28.36c-1.32,3.9-4.78,6.77-9.92,6.77H95.91V14.27h6.2c6.93,0,10.44,4.55,10.44,10.41A11.18,11.18,0,0,1,112,28.36Z"/><polygon class="cls-1" points="181.1 28.36 181.1 43.65 188.93 43.65 188.93 28.36 188.93 13.32 181.1 13.32 181.1 28.36"/><path class="cls-1" d="M308.78,13.32h-9.87l-5.66,15L287.5,43.65h8.87l1.5-4.36h11.95l1.51,4.36h8.87l-5.76-15.29ZM300,32.47l1.39-4.11,2.48-7.31,2.45,7.31,1.37,4.11Z"/><path class="cls-1" d="M160.32,21.88c0-1.33,1-2.1,3.28-2.1A14,14,0,0,1,172.46,23l4.28-5.87a18.53,18.53,0,0,0-12.33-4.22c-7.77,0-12,4.54-12,9.64a7.9,7.9,0,0,0,2.21,5.85c4.63,4.71,14.93,3.41,14.93,6.51,0,1.5-1.63,2.41-4.28,2.41a13.74,13.74,0,0,1-9.72-4l-4.15,6.1c3,2.86,7.33,4.81,13.47,4.81,8.13,0,12.63-4,12.63-10.13a7.67,7.67,0,0,0-2.21-5.7C170.62,23.71,160.32,24.76,160.32,21.88Z"/><path class="cls-1" d="M208,33.1h6.82v2.36a9.64,9.64,0,0,1-5.59,1.82c-5,0-8.46-3.81-8.46-8.77a.76.76,0,0,1,0-.15c.06-4.92,3.54-8.62,8.45-8.62a7.53,7.53,0,0,1,6.41,3.86l6.55-3.41a14.17,14.17,0,0,0-13-7.37c-9,0-16.35,6-16.42,15.54v.15c0,9.64,7.37,15.68,16.42,15.68a17.43,17.43,0,0,0,13.41-5.91v-12H208Z"/><polygon class="cls-1" points="271.18 28.36 271.18 5.75 261.4 5.75 261.4 28.36 261.4 43.65 286.41 43.65 286.41 35.13 271.18 35.13 271.18 28.36"/><path class="cls-1" d="M344.59,28.36a7.12,7.12,0,0,0-1.3-.35,6.78,6.78,0,0,0,5.18-7c0-3.81-2.81-7.73-8.87-7.73H322.42V43.65h17.73c6,0,8.92-3.82,8.92-8.23A7.48,7.48,0,0,0,344.59,28.36Zm-14.35-8.22h7.59a2.38,2.38,0,0,1,2.68,2.37c0,1.49-1.08,2.36-2.68,2.36h-7.59Zm7.86,16.69h-7.86V31.69h7.86c1.91,0,3,1.05,3,2.55S340,36.83,338.1,36.83Z"/></g></g></svg>